<?xml version="1.0" encoding="UTF-8"?>
<svg width="400" height="300" viewBox="0 0 400 300" fill="none" xmlns="http://www.w3.org/2000/svg">
    <!-- Background -->
    <rect width="400" height="300" rx="20" fill="#EFF6FF"/>
    
    <!-- Cloud Infrastructure Illustration -->
    <g transform="translate(100,70)">
        <!-- Server Racks -->
        <rect x="20" y="80" width="160" height="120" rx="10" fill="#DBEAFE" stroke="#2563EB" stroke-width="3"/>
        <rect x="40" y="100" width="120" height="20" rx="5" fill="#2563EB"/>
        <rect x="40" y="130" width="120" height="20" rx="5" fill="#2563EB"/>
        <rect x="40" y="160" width="120" height="20" rx="5" fill="#2563EB"/>
        
        <!-- Cloud -->
        <path d="M140 40C140 17.909 122.091 0 100 0C77.909 0 60 17.909 60 40C60 40.3369 60.0056 40.6725 60.0167 41.0067C57.4655 40.3437 54.7706 40 52 40C34.3269 40 20 54.3269 20 72C20 89.6731 34.3269 104 52 104H148C165.673 104 180 89.6731 180 72C180 56.1 167.457 42.9 151 40.6C150.931 40.4018 150.861 40.2024 150.787 40.0021C147.934 24.5714 135.097 13 120 13C116.751 13 113.621 13.4914 110.675 14.4115C107.073 5.89173 98.2832 0 88 0C77.7168 0 68.9265 5.89173 65.3252 14.4115C62.3793 13.4914 59.2494 13 56 13C41.0883 13 28.3501 24.3961 25.3825 39.6C11.0488 42.0069 0 54.5143 0 69.5C0 85.7924 13.2076 99 29.5 99H170.5C186.792 99 200 85.7924 200 69.5C200 53.2076 186.792 40 170.5 40H168.627C167.878 17.8602 149.764 0 127.5 0C114.95 0 103.786 6.44822 97.3833 16.3367C94.0631 14.8223 90.4272 14 86.6167 14C70.9511 14 57.9834 25.9391 56.1876 41.2058C41.435 43.1289 30 55.7848 30 71C30 87.5685 43.4315 101 60 101H140C156.569 101 170 87.5685 170 71C170 54.4315 156.569 41 140 41C140 40.6725 140.006 40.3369 140.017 40.0067" fill="#BFDBFE"/>
        
        <!-- Connection Lines -->
        <path d="M100 104V140" stroke="#2563EB" stroke-width="3" stroke-dasharray="5 5"/>
        <circle cx="100" cy="120" r="4" fill="#2563EB"/>
    </g>
</svg> 